<svg width="150" height="150" viewBox="0 0 150 150" xmlns="http://www.w3.org/2000/svg">
  <defs>
    <linearGradient id="bg2" x1="0%" y1="0%" x2="100%" y2="100%">
      <stop offset="0%" style="stop-color:#059669;stop-opacity:1" />
      <stop offset="100%" style="stop-color:#047857;stop-opacity:1" />
    </linearGradient>
  </defs>
  
  <!-- Background -->
  <rect width="150" height="150" rx="20" fill="url(#bg2)"/>
  
  <!-- Face -->
  <circle cx="75" cy="65" r="25" fill="#fcd34d" opacity="0.9"/>
  
  <!-- Hair -->
  <path d="M50 45 Q75 30 100 45 Q95 35 75 35 Q55 35 50 45" fill="#6b7280"/>
  
  <!-- Eyes -->
  <circle cx="68" cy="60" r="2" fill="#1f2937"/>
  <circle cx="82" cy="60" r="2" fill="#1f2937"/>
  
  <!-- Glasses -->
  <circle cx="68" cy="60" r="8" fill="none" stroke="#1f2937" stroke-width="1"/>
  <circle cx="82" cy="60" r="8" fill="none" stroke="#1f2937" stroke-width="1"/>
  <path d="M76 60 L74 60" stroke="#1f2937" stroke-width="1"/>
  
  <!-- Nose -->
  <path d="M75 65 L73 68 L77 68 Z" fill="#f59e0b"/>
  
  <!-- Mouth -->
  <path d="M70 72 Q75 75 80 72" stroke="#1f2937" stroke-width="1.5" fill="none"/>
  
  <!-- Suit -->
  <rect x="45" y="90" width="60" height="60" rx="5" fill="#1f2937"/>
  <rect x="50" y="95" width="50" height="50" rx="3" fill="#ffffff"/>
  <rect x="55" y="100" width="40" height="40" rx="2" fill="#059669"/>
  
  <!-- Tie -->
  <path d="M75 100 L70 110 L75 130 L80 110 Z" fill="#2563eb"/>
  
  <!-- Initials as backup -->
  <text x="75" y="80" text-anchor="middle" font-family="Arial, sans-serif" font-size="16" font-weight="bold" fill="#ffffff">PJ</text>
</svg>