<svg width="150" height="150" viewBox="0 0 150 150" xmlns="http://www.w3.org/2000/svg">
  <defs>
    <linearGradient id="bg3" x1="0%" y1="0%" x2="100%" y2="100%">
      <stop offset="0%" style="stop-color:#7c3aed;stop-opacity:1" />
      <stop offset="100%" style="stop-color:#6d28d9;stop-opacity:1" />
    </linearGradient>
  </defs>
  
  <!-- Background -->
  <rect width="150" height="150" rx="20" fill="url(#bg3)"/>
  
  <!-- Face -->
  <circle cx="75" cy="65" r="25" fill="#fde68a" opacity="0.9"/>
  
  <!-- Hair (longer for female) -->
  <path d="M45 45 Q75 25 105 45 Q100 40 75 30 Q50 40 45 45" fill="#92400e"/>
  <path d="M45 45 Q40 60 45 75 Q50 70 55 65" fill="#92400e"/>
  <path d="M105 45 Q110 60 105 75 Q100 70 95 65" fill="#92400e"/>
  
  <!-- Eyes -->
  <circle cx="68" cy="60" r="2" fill="#1f2937"/>
  <circle cx="82" cy="60" r="2" fill="#1f2937"/>
  
  <!-- Eyelashes -->
  <path d="M66 58 L67 56" stroke="#1f2937" stroke-width="0.5"/>
  <path d="M70 58 L71 56" stroke="#1f2937" stroke-width="0.5"/>
  <path d="M80 58 L81 56" stroke="#1f2937" stroke-width="0.5"/>
  <path d="M84 58 L85 56" stroke="#1f2937" stroke-width="0.5"/>
  
  <!-- Nose -->
  <path d="M75 65 L73 68 L77 68 Z" fill="#f59e0b"/>
  
  <!-- Mouth (with lipstick) -->
  <path d="M70 72 Q75 75 80 72" stroke="#dc2626" stroke-width="2" fill="none"/>
  
  <!-- Professional attire -->
  <rect x="45" y="90" width="60" height="60" rx="5" fill="#1f2937"/>
  <rect x="50" y="95" width="50" height="50" rx="3" fill="#ffffff"/>
  <rect x="55" y="100" width="40" height="40" rx="2" fill="#7c3aed"/>
  
  <!-- Necklace -->
  <circle cx="75" cy="88" r="3" fill="#fbbf24"/>
  
  <!-- Initials as backup -->
  <text x="75" y="80" text-anchor="middle" font-family="Arial, sans-serif" font-size="16" font-weight="bold" fill="#ffffff">SR</text>
</svg>